<?xml version="1.0" encoding="UTF-8" standalone="no"?>
<!-- Created with sK1/UniConvertor (http://sk1project.org/) -->

<svg
   xmlns:dc="http://purl.org/dc/elements/1.1/"
   xmlns:cc="http://creativecommons.org/ns#"
   xmlns:rdf="http://www.w3.org/1999/02/22-rdf-syntax-ns#"
   xmlns:svg="http://www.w3.org/2000/svg"
   xmlns="http://www.w3.org/2000/svg"
   xmlns:sodipodi="http://sodipodi.sourceforge.net/DTD/sodipodi-0.dtd"
   xmlns:inkscape="http://www.inkscape.org/namespaces/inkscape"
   width="1055.9076"
   height="383.69"
   viewBox="0 0 844.7261 306.95199"
   id="svg3073"
   version="1.1"
   inkscape:version="0.48.3.1 r9886"
   sodipodi:docname="holes_master.svg"
   style="fill-rule:evenodd">
  <metadata
     id="metadata3121">
    <rdf:RDF>
      <cc:Work
         rdf:about="">
        <dc:format>image/svg+xml</dc:format>
        <dc:type
           rdf:resource="http://purl.org/dc/dcmitype/StillImage" />
        <dc:title />
      </cc:Work>
    </rdf:RDF>
  </metadata>
  <defs
     id="defs3119" />
  <sodipodi:namedview
     pagecolor="#ffffff"
     bordercolor="#666666"
     borderopacity="1"
     objecttolerance="10"
     gridtolerance="10"
     guidetolerance="10"
     inkscape:pageopacity="0"
     inkscape:pageshadow="2"
     inkscape:window-width="1299"
     inkscape:window-height="718"
     id="namedview3117"
     showgrid="false"
     fit-margin-top="2"
     fit-margin-left="2"
     fit-margin-right="2"
     fit-margin-bottom="2"
     inkscape:zoom="0.89702926"
     inkscape:cx="584.38302"
     inkscape:cy="230.85024"
     inkscape:window-x="130"
     inkscape:window-y="97"
     inkscape:window-maximized="0"
     inkscape:current-layer="svg3073" />
  <path
     inkscape:connector-curvature="0"
     id="path3077"
     d="m 362.36707,18.242987 -1.676,0.165 -1.611,0.489 -1.485,0.794 -1.302,1.068 -1.068,1.301 -0.794,1.485 -0.488,1.612 -0.166,1.675 0.166,1.676 0.488,1.611 0.794,1.485 1.068,1.302 1.302,1.068 1.485,0.793 1.611,0.489 1.676,0.165 1.675,-0.165 1.611,-0.489 1.485,-0.793 1.302,-1.068 1.068,-1.302 0.794,-1.485 0.489,-1.611 0.165,-1.676 -0.165,-1.675 -0.489,-1.612 -0.794,-1.485 -1.068,-1.301 -1.302,-1.068 -1.485,-0.794 -1.611,-0.489 -1.675,-0.165 z"
     style="fill:#000000;fill-opacity:1;stroke:#333333;stroke-width:0.72000003" />
  <path
     inkscape:connector-curvature="0"
     id="path3079"
     d="m 362.36707,56.422987 -1.676,0.165 -1.611,0.489 -1.485,0.794 -1.302,1.068 -1.068,1.302 -0.794,1.484 -0.488,1.612 -0.166,1.675 0.166,1.676 0.488,1.611 0.794,1.485 1.068,1.302 1.302,1.068 1.485,0.794 1.611,0.488 1.676,0.165 1.675,-0.165 1.611,-0.488 1.485,-0.794 1.302,-1.068 1.068,-1.302 0.794,-1.485 0.489,-1.611 0.165,-1.676 -0.165,-1.675 -0.489,-1.612 -0.794,-1.484 -1.068,-1.302 -1.302,-1.068 -1.485,-0.794 -1.611,-0.489 -1.675,-0.165 z"
     style="fill:#000000;fill-opacity:1;stroke:#333333;stroke-width:0.72000003" />
  <path
     inkscape:connector-curvature="0"
     id="path3081"
     d="m 2.4000001,304.99199 4.253097,0 12.2732699,0 19.5642,0 26.1262,0 31.959,0 37.062303,0 41.438,0 45.083,0 47.999,0 50.186,0 51.645,0 52.374,0 52.374,0 51.645,0 50.186,0 47.999,0 45.083,0 41.438,0 37.062,0 31.959,0 26.126,0 19.565,0 12.273,0 4.253,0"
     style="fill:none;stroke:#000000;stroke-width:1.60000005;stroke-miterlimit:4;stroke-dasharray:none" />
  <path
     inkscape:connector-curvature="0"
     id="path3083"
     d="m 842.32607,2.3999869 -4.253,0 -12.273,0 -19.565,0 -26.126,0 -31.959,0 -37.062,0 -41.438,0 -45.083,0 -47.999,0 -50.186,0 -51.645,0 -52.374,0 -52.374,0 -51.645,0 -50.186,0 -47.999,0 -45.083,0 -41.438,0 -37.062303,0 -31.959,0 -26.1262,0 -19.5642,0 -12.2732699,0 -4.253097,0"
     style="fill:none;stroke:#000000;stroke-width:1.60000005;stroke-miterlimit:4;stroke-dasharray:none" />
  <path
     inkscape:connector-curvature="0"
     id="path3085"
     d="m 2.4000001,2.3999869 0,1.5319999 0,4.422 0,7.0480002 0,9.412 0,11.514 0,13.352 0,14.928 0,16.242 0,17.292 0,18.080003 0,18.606 0,18.868 0,18.868 0,18.606 0,18.08 0,17.292 0,16.242 0,14.928 0,13.352 0,11.514 0,9.412 0,7.048 0,4.422 0,1.532"
     style="fill:none;stroke:#000000;stroke-width:1.60000005;stroke-miterlimit:4;stroke-dasharray:none" />
  <path
     inkscape:connector-curvature="0"
     id="path3087"
     d="m 842.32607,304.99199 0,-1.532 0,-4.422 0,-7.048 0,-9.412 0,-11.514 0,-13.352 0,-14.928 0,-16.242 0,-17.292 0,-18.08 0,-18.606 0,-18.868 0,-18.868 0,-18.606 0,-18.080003 0,-17.292 0,-16.242 0,-14.928 0,-13.352 0,-11.514 0,-9.412 0,-7.0480002 0,-4.422 0,-1.5319999"
     style="fill:none;stroke:#000000;stroke-width:1.60000005;stroke-miterlimit:4;stroke-dasharray:none" />
  <path
     inkscape:connector-curvature="0"
     id="path3089"
     d="m 46.031667,258.22499 -1.6756,0.165 -1.6113,0.488 -1.4849,0.794 -1.3016,1.068 -1.0682,1.302 -0.7937,1.485 -0.4887,1.611 -0.1651,1.676 0.1651,1.675 0.4887,1.612 0.7937,1.485 1.0682,1.301 1.3016,1.068 1.4849,0.794 1.6113,0.489 1.6756,0.165 1.6756,-0.165 1.6113,-0.489 1.4849,-0.794 1.3016,-1.068 1.0682,-1.301 0.7937,-1.485 0.4887,-1.612 0.1651,-1.675 -0.1651,-1.676 -0.4887,-1.611 -0.7937,-1.485 -1.0682,-1.302 -1.3016,-1.068 -1.4849,-0.794 -1.6113,-0.488 -1.6756,-0.165 z"
     style="fill:#000000;fill-opacity:1;stroke:#333333;stroke-width:0.72000003" />
  <path
     inkscape:connector-curvature="0"
     id="path3091"
     d="m 138.75207,258.22499 -1.676,0.165 -1.611,0.488 -1.485,0.794 -1.302,1.068 -1.068,1.302 -0.794,1.485 -0.488,1.611 -0.166,1.676 0.166,1.675 0.488,1.612 0.794,1.485 1.068,1.301 1.302,1.068 1.485,0.794 1.611,0.489 1.676,0.165 1.675,-0.165 1.611,-0.489 1.485,-0.794 1.302,-1.068 1.068,-1.301 0.794,-1.485 0.489,-1.612 0.165,-1.675 -0.165,-1.676 -0.489,-1.611 -0.794,-1.485 -1.068,-1.302 -1.302,-1.068 -1.485,-0.794 -1.611,-0.488 -1.675,-0.165 z"
     style="fill:#000000;fill-opacity:1;stroke:#333333;stroke-width:0.72000003" />
  <path
     inkscape:connector-curvature="0"
     id="path3093"
     d="m 231.47107,258.22499 -1.676,0.165 -1.611,0.488 -1.485,0.794 -1.302,1.068 -1.068,1.302 -0.794,1.485 -0.488,1.611 -0.165,1.676 0.165,1.675 0.488,1.612 0.794,1.485 1.068,1.301 1.302,1.068 1.485,0.794 1.611,0.489 1.676,0.165 1.675,-0.165 1.612,-0.489 1.485,-0.794 1.301,-1.068 1.068,-1.301 0.794,-1.485 0.489,-1.612 0.165,-1.675 -0.165,-1.676 -0.489,-1.611 -0.794,-1.485 -1.068,-1.302 -1.301,-1.068 -1.485,-0.794 -1.612,-0.488 -1.675,-0.165 z"
     style="fill:#000000;fill-opacity:1;stroke:#333333;stroke-width:0.72000003" />
  <path
     inkscape:connector-curvature="0"
     id="path3095"
     d="m 324.18907,258.22499 -1.676,0.165 -1.611,0.488 -1.485,0.794 -1.301,1.068 -1.069,1.302 -0.793,1.485 -0.489,1.611 -0.165,1.676 0.165,1.675 0.489,1.612 0.793,1.485 1.069,1.301 1.301,1.068 1.485,0.794 1.611,0.489 1.676,0.165 1.676,-0.165 1.611,-0.489 1.485,-0.794 1.301,-1.068 1.069,-1.301 0.793,-1.485 0.489,-1.612 0.165,-1.675 -0.165,-1.676 -0.489,-1.611 -0.793,-1.485 -1.069,-1.302 -1.301,-1.068 -1.485,-0.794 -1.611,-0.488 -1.676,-0.165 z"
     style="fill:#000000;fill-opacity:1;stroke:#333333;stroke-width:0.72000003" />
  <path
     inkscape:connector-curvature="0"
     id="path3097"
     d="m 416.90807,258.22499 -1.676,0.165 -1.611,0.488 -1.485,0.794 -1.301,1.068 -1.068,1.302 -0.794,1.485 -0.489,1.611 -0.165,1.676 0.165,1.675 0.489,1.612 0.794,1.485 1.068,1.301 1.301,1.068 1.485,0.794 1.611,0.489 1.676,0.165 1.676,-0.165 1.611,-0.489 1.485,-0.794 1.301,-1.068 1.069,-1.301 0.793,-1.485 0.489,-1.612 0.165,-1.675 -0.165,-1.676 -0.489,-1.611 -0.793,-1.485 -1.069,-1.302 -1.301,-1.068 -1.485,-0.794 -1.611,-0.488 -1.676,-0.165 z"
     style="fill:#000000;fill-opacity:1;stroke:#333333;stroke-width:0.72000003" />
  <path
     inkscape:connector-curvature="0"
     id="path3099"
     d="m 509.62707,258.22499 -1.675,0.165 -1.612,0.488 -1.485,0.794 -1.301,1.068 -1.068,1.302 -0.794,1.485 -0.489,1.611 -0.165,1.676 0.165,1.675 0.489,1.612 0.794,1.485 1.068,1.301 1.301,1.068 1.485,0.794 1.612,0.489 1.675,0.165 1.676,-0.165 1.611,-0.489 1.485,-0.794 1.302,-1.068 1.068,-1.301 0.793,-1.485 0.489,-1.612 0.165,-1.675 -0.165,-1.676 -0.489,-1.611 -0.793,-1.485 -1.068,-1.302 -1.302,-1.068 -1.485,-0.794 -1.611,-0.488 -1.676,-0.165 z"
     style="fill:#000000;fill-opacity:1;stroke:#333333;stroke-width:0.72000003" />
  <path
     inkscape:connector-curvature="0"
     id="path3101"
     d="m 602.34607,258.22499 -1.675,0.165 -1.612,0.488 -1.485,0.794 -1.301,1.068 -1.068,1.302 -0.794,1.485 -0.489,1.611 -0.165,1.676 0.165,1.675 0.489,1.612 0.794,1.485 1.068,1.301 1.301,1.068 1.485,0.794 1.612,0.489 1.675,0.165 1.676,-0.165 1.611,-0.489 1.485,-0.794 1.302,-1.068 1.068,-1.301 0.794,-1.485 0.488,-1.612 0.165,-1.675 -0.165,-1.676 -0.488,-1.611 -0.794,-1.485 -1.068,-1.302 -1.302,-1.068 -1.485,-0.794 -1.611,-0.488 -1.676,-0.165 z"
     style="fill:#000000;fill-opacity:1;stroke:#333333;stroke-width:0.72000003" />
  <path
     inkscape:connector-curvature="0"
     id="path3103"
     d="m 695.06507,258.22499 -1.675,0.165 -1.611,0.488 -1.485,0.794 -1.302,1.068 -1.068,1.302 -0.794,1.485 -0.489,1.611 -0.165,1.676 0.165,1.675 0.489,1.612 0.794,1.485 1.068,1.301 1.302,1.068 1.485,0.794 1.611,0.489 1.675,0.165 1.676,-0.165 1.611,-0.489 1.485,-0.794 1.302,-1.068 1.068,-1.301 0.794,-1.485 0.488,-1.612 0.166,-1.675 -0.166,-1.676 -0.488,-1.611 -0.794,-1.485 -1.068,-1.302 -1.302,-1.068 -1.485,-0.794 -1.611,-0.488 -1.676,-0.165 z"
     style="fill:#000000;fill-opacity:1;stroke:#333333;stroke-width:0.72000003" />
  <path
     inkscape:connector-curvature="0"
     id="path3105"
     d="m 787.78507,258.22499 -1.675,0.165 -1.612,0.488 -1.484,0.794 -1.302,1.068 -1.068,1.302 -0.794,1.485 -0.489,1.611 -0.165,1.676 0.165,1.675 0.489,1.612 0.794,1.485 1.068,1.301 1.302,1.068 1.484,0.794 1.612,0.489 1.675,0.165 1.676,-0.165 1.611,-0.489 1.485,-0.794 1.302,-1.068 1.068,-1.301 0.794,-1.485 0.488,-1.612 0.165,-1.675 -0.165,-1.676 -0.488,-1.611 -0.794,-1.485 -1.068,-1.302 -1.302,-1.068 -1.485,-0.794 -1.611,-0.488 -1.676,-0.165 z"
     style="fill:#000000;fill-opacity:1;stroke:#333333;stroke-width:0.72000003" />
  <path
     inkscape:connector-curvature="0"
     id="path3107"
     d="m 89.664167,225.49999 -1.6756,0.165 -1.6113,0.489 -1.4849,0.794 -1.3016,1.068 -1.0681,1.301 -0.7937,1.485 -0.4888,1.612 -0.1651,1.675 0.1651,1.676 0.4888,1.611 0.7937,1.485 1.0681,1.302 1.3016,1.068 1.4849,0.794 1.6113,0.488 1.6756,0.165 1.6757,-0.165 1.6112,-0.488 1.485,-0.794 1.3015,-1.068 1.0682,-1.302 0.7937,-1.485 0.4888,-1.611 0.165,-1.676 -0.165,-1.675 -0.4888,-1.612 -0.7937,-1.485 -1.0682,-1.301 -1.3015,-1.068 -1.485,-0.794 -1.6112,-0.489 -1.6757,-0.165 z"
     style="fill:#000000;fill-opacity:1;stroke:#333333;stroke-width:0.72000003" />
  <path
     inkscape:connector-curvature="0"
     id="path3109"
     d="m 51.485767,56.422987 -1.6757,0.165 -1.6112,0.489 -1.485,0.794 -1.3015,1.068 -1.0682,1.302 -0.7937,1.484 -0.4888,1.612 -0.165,1.675 0.165,1.676 0.4888,1.611 0.7937,1.485 1.0682,1.302 1.3015,1.068 1.485,0.794 1.6112,0.488 1.6757,0.165 1.6756,-0.165 1.6113,-0.488 1.4849,-0.794 1.3016,-1.068 1.0681,-1.302 0.7937,-1.485 0.4888,-1.611 0.165,-1.676 -0.165,-1.675 -0.4888,-1.612 -0.7937,-1.484 -1.0681,-1.302 -1.3016,-1.068 -1.4849,-0.794 -1.6113,-0.489 -1.6756,-0.165 z"
     style="fill:#000000;fill-opacity:1;stroke:#333333;stroke-width:0.72000003" />
  <path
     inkscape:connector-curvature="0"
     id="path3111"
     d="m 711.42907,45.515987 -1.675,0.165 -1.612,0.489 -1.485,0.794 -1.301,1.068 -1.068,1.301 -0.794,1.485 -0.489,1.611 -0.165,1.676 0.165,1.676 0.489,1.611 0.794,1.485 1.068,1.302 1.301,1.068 1.485,0.793 1.612,0.489 1.675,0.165 1.676,-0.165 1.611,-0.489 1.485,-0.793 1.302,-1.068 1.068,-1.302 0.794,-1.485 0.488,-1.611 0.165,-1.676 -0.165,-1.676 -0.488,-1.611 -0.794,-1.485 -1.068,-1.301 -1.302,-1.068 -1.485,-0.794 -1.611,-0.489 -1.676,-0.165 z"
     style="fill:#000000;fill-opacity:1;stroke:#333333;stroke-width:0.72000003" />
  <path
     inkscape:connector-curvature="0"
     id="path3113"
     d="m 667.79507,214.59199 -1.676,0.165 -1.611,0.489 -1.485,0.794 -1.301,1.068 -1.068,1.301 -0.794,1.485 -0.489,1.611 -0.165,1.676 0.165,1.676 0.489,1.611 0.794,1.485 1.068,1.302 1.301,1.068 1.485,0.793 1.611,0.489 1.676,0.165 1.676,-0.165 1.611,-0.489 1.485,-0.793 1.301,-1.068 1.069,-1.302 0.793,-1.485 0.489,-1.611 0.165,-1.676 -0.165,-1.676 -0.489,-1.611 -0.793,-1.485 -1.069,-1.301 -1.301,-1.068 -1.485,-0.794 -1.611,-0.489 -1.676,-0.165 z"
     style="fill:#000000;fill-opacity:1;stroke:#333333;stroke-width:0.72000003" />
  <path
     inkscape:connector-curvature="0"
     id="path3115"
     d="m 793.24007,56.423987 -1.675,0.165 -1.612,0.489 -1.485,0.794 -1.301,1.068 -1.068,1.301 -0.794,1.485 -0.489,1.612 -0.165,1.675 0.165,1.676 0.489,1.611 0.794,1.485 1.068,1.302 1.301,1.068 1.485,0.793 1.612,0.489 1.675,0.165 1.676,-0.165 1.611,-0.489 1.485,-0.793 1.302,-1.068 1.068,-1.302 0.794,-1.485 0.488,-1.611 0.165,-1.676 -0.165,-1.675 -0.488,-1.612 -0.794,-1.485 -1.068,-1.301 -1.302,-1.068 -1.485,-0.794 -1.611,-0.489 -1.676,-0.165 z"
     style="fill:#000000;fill-opacity:1;stroke:#333333;stroke-width:0.72000003" />
  <text
     xml:space="preserve"
     style="font-size:32px;font-style:normal;font-weight:normal;line-height:125%;letter-spacing:0px;word-spacing:0px;fill:#000000;fill-opacity:1;stroke:none;font-family:Sans"
     x="791.0556"
     y="45.645023"
     id="text3122"
     sodipodi:linespacing="125%"><tspan
       sodipodi:role="line"
       id="tspan3124"
       x="791.0556"
       y="45.645023">A<tspan
   style="font-size:20.80029297px;baseline-shift:sub"
   id="tspan3142">0</tspan></tspan></text>
  <text
     xml:space="preserve"
     style="font-size:32px;font-style:normal;font-weight:normal;line-height:125%;letter-spacing:0px;word-spacing:0px;fill:#000000;fill-opacity:1;stroke:none;font-family:Sans"
     x="783.02911"
     y="247.19922"
     id="text3126"
     sodipodi:linespacing="125%"><tspan
       sodipodi:role="line"
       id="tspan3128"
       x="783.02911"
       y="247.19922">B</tspan></text>
  <text
     xml:space="preserve"
     style="font-size:32px;font-style:normal;font-weight:normal;line-height:125%;letter-spacing:0px;word-spacing:0px;fill:#000000;fill-opacity:1;stroke:none;font-family:Sans"
     x="381.70438"
     y="50.996017"
     id="text3130"
     sodipodi:linespacing="125%"><tspan
       sodipodi:role="line"
       id="tspan3132"
       x="381.70438"
       y="50.996017">C</tspan></text>
  <text
     xml:space="preserve"
     style="font-size:32px;font-style:normal;font-weight:normal;line-height:125%;letter-spacing:0px;word-spacing:0px;fill:#000000;fill-opacity:1;stroke:none;font-family:Sans"
     x="68.67112"
     y="54.563347"
     id="text3134"
     sodipodi:linespacing="125%"><tspan
       sodipodi:role="line"
       id="tspan3136"
       x="68.67112"
       y="54.563347">A<tspan
   style="font-size:20.80029297px;baseline-shift:sub"
   id="tspan3144">2</tspan></tspan></text>
  <text
     xml:space="preserve"
     style="font-size:32px;font-style:normal;font-weight:normal;line-height:125%;letter-spacing:0px;word-spacing:0px;fill:#000000;fill-opacity:1;stroke:none;font-family:Sans"
     x="101.66892"
     y="217.76872"
     id="text3138"
     sodipodi:linespacing="125%"><tspan
       sodipodi:role="line"
       id="tspan3140"
       x="101.66892"
       y="217.76872">A<tspan
   style="font-size:20.80029297px;baseline-shift:sub"
   id="tspan3146">3</tspan></tspan></text>
  <text
     xml:space="preserve"
     style="font-size:32px;font-style:normal;font-weight:normal;line-height:125%;letter-spacing:0px;word-spacing:0px;fill:#000000;fill-opacity:1;stroke:none;font-family:Sans"
     x="710.25897"
     y="34.051193"
     id="text3148"
     sodipodi:linespacing="125%"><tspan
       sodipodi:role="line"
       id="tspan3150"
       x="710.25897"
       y="34.051193">A<tspan
   style="font-size:20.80029297px;baseline-shift:sub"
   id="tspan3152">1</tspan></tspan></text>
  <text
     xml:space="preserve"
     style="font-size:32px;font-style:normal;font-weight:normal;line-height:125%;letter-spacing:0px;word-spacing:0px;fill:#000000;fill-opacity:1;stroke:none;font-family:Sans"
     x="679.57648"
     y="207.06673"
     id="text3154"
     sodipodi:linespacing="125%"><tspan
       sodipodi:role="line"
       id="tspan3156"
       x="679.57648"
       y="207.06673">A<tspan
   style="font-size:20.80029297px;baseline-shift:sub"
   id="tspan3158">4</tspan></tspan></text>
</svg>
